<?xml version="1.0" encoding="utf-8"?>
<!-- Generator: Adobe Illustrator 19.2.1, SVG Export Plug-In . SVG Version: 6.00 Build 0)  -->
<svg version="1.1" id="Ebene_1" xmlns="http://www.w3.org/2000/svg" xmlns:xlink="http://www.w3.org/1999/xlink" x="0px" y="0px"
	 width="14px" height="13.3px" viewBox="0 0 14 13.3" style="enable-background:new 0 0 14 13.3;" xml:space="preserve">
<style type="text/css">
	.st0{display:none;}
	.st1{display:inline;fill:#666666;stroke:#060707;stroke-width:3;stroke-miterlimit:10;}
	.st2{display:inline;fill:#666666;stroke:#060707;stroke-miterlimit:10;}
	.st3{display:inline;fill:#575756;}
	.st4{display:inline;fill:none;}
	.st5{display:inline;fill:#32466E;}
	.st6{display:inline;fill:#676767;}
	.st7{display:inline;fill:#FFFFFF;}
	.st8{display:inline;fill:none;stroke:#FFFFFF;stroke-miterlimit:10;}
	.st9{display:inline;fill:none;stroke:#FFFFFF;stroke-width:0.5;stroke-miterlimit:10;}
	.st10{display:inline;fill:#676767;stroke:#FFFFFF;stroke-miterlimit:10;}
	.st11{display:inline;fill:#F6F6F6;}
	.st12{display:inline;fill:#7C7C7B;}
	.st13{display:inline;}
	.st14{fill:#FFFFFF;}
	.st15{fill:#FFFEFC;}
	.st16{font-family:'OpenSans-Semibold';}
	.st17{font-size:6px;}
	.st18{display:inline;fill:#3767AF;}
	.st19{display:inline;fill:#D19113;}
	.st20{display:inline;fill:#347166;}
	.st21{display:inline;fill:#B0CB27;}
	.st22{display:inline;fill:#9E9D9C;}
	.st23{display:inline;fill:#B4AA82;}
	.st24{display:inline;fill:#A01A16;}
	.st25{display:inline;fill:#FCFDFB;}
	.st26{fill:#878787;}
	.st27{fill:none;}
	.st28{enable-background:new    ;}
	.st29{fill:#F6F6F6;}
	.st30{fill:#314670;}
	.st31{fill:#606E8D;}
</style>
<g id="Ebene_1_1_" class="st0">
	<path class="st1" d="M-12.3,13.7"/>
	<path class="st1" d="M-12.3,0.8"/>
	<path class="st2" d="M-11,12.7"/>
	<path class="st2" d="M-11,0.1"/>
	<path class="st3" d="M-5.9,12.2"/>
	<line class="st4" x1="3" y1="-2.6" x2="-4.4" y2="2"/>
	<path class="st5" d="M-5.9,10c0-2.8,2-5,4.6-5.5c-0.4-5.8-5.2-10.3-11-10.3c-6.2,0-11.2,5-11.2,11.1s5,11.1,11.1,11.1
		c2.9,0,5.6-1.2,7.6-3C-5.5,12.4-5.9,11.3-5.9,10z"/>
	<path class="st6" d="M-4.1,10.5"/>
	<circle class="st7" cx="-15.6" cy="0.9" r="1.3"/>
	<path class="st8" d="M-19,7.1"/>
	<circle class="st7" cx="-15.8" cy="8.5" r="1.3"/>
	<line class="st9" x1="-15.6" y1="0.9" x2="-23.3" y2="4.8"/>
	<path class="st10" d="M-9.7,4.5"/>
	<polyline class="st11" points="-7.2,8.5 -5,5.1 -8.1,5.6 	"/>
	<circle class="st12" cx="-0.8" cy="9.7" r="3.4"/>
	<circle class="st7" cx="-8.2" cy="-3.3" r="1.3"/>
	<path class="st7" d="M-9.3,4.6l-11.3-6.7c-0.1,0.1-0.2,0.2-0.3,0.4l11.3,6.8L-9.3,4.6z"/>
	<path class="st7" d="M-23.4,5.6c0.2,0.1,0.4,0.2,0.6,0.2c0.7,0,1.3-0.6,1.3-1.3s-0.6-1.3-1.3-1.3c-0.2,0-0.3,0-0.4,0.1
		c-0.1,0.6-0.2,1.3-0.2,1.9C-23.5,5.4-23.4,5.5-23.4,5.6z"/>
	<g class="st13">
		<path class="st14" d="M-15.4-5.4l-0.5,0.2l-0.2,20.9c0.2,0.1,0.3,0.1,0.5,0.2L-15.4-5.4z"/>
	</g>
	<path class="st7" d="M-15.5,1.1L-6.3-4c-0.2-0.1-0.3-0.2-0.5-0.3l-9,5L-15.5,1.1z"/>
</g>
<g id="Ebene_2" class="st0">
	<path class="st5" d="M-6,10c0-2.8,2-5,4.6-5.5c-0.3-5.8-5.1-10.3-11-10.3c-6.1,0-11.1,5-11.1,11.1s5,11.1,11.1,11.1
		c2.9,0,5.6-1.2,7.6-3C-5.5,12.4-6,11.3-6,10z"/>
	<path class="st12" d="M-0.4,13.5c-2.1,0-3.8-1.7-3.8-3.8s1.7-3.8,3.8-3.8s3.8,1.7,3.8,3.8S1.8,13.5-0.4,13.5z M-0.4,6.8
		c-1.6,0-2.8,1.3-2.8,2.8s1.3,2.8,2.8,2.8s2.8-1.3,2.8-2.8S1.2,6.8-0.4,6.8z"/>
	<rect x="2.7" y="11.3" transform="matrix(0.642 -0.7667 0.7667 0.642 -8.5929 6.9766)" class="st12" width="1" height="2.8"/>
	<g class="st13">
		<polygon class="st15" points="-18.2,2.4 -18.7,0.8 -18.8,0.5 -18.9,0.8 -19.3,2.4 -21,2.4 -19.7,3.6 -20.3,5.4 -18.8,4.2
			-17.3,5.4 -17.8,3.6 -16.5,2.4 		"/>
		<polygon class="st15" points="-13.1,2.4 -13.5,0.8 -13.6,0.5 -13.7,0.8 -14.2,2.4 -15.9,2.4 -14.6,3.6 -15.1,5.4 -13.6,4.2
			-12.1,5.4 -12.7,3.6 -11.4,2.4 		"/>
		<polygon class="st15" points="-6.3,2.4 -8,2.4 -8.4,0.8 -8.5,0.5 -8.6,0.8 -9,2.4 -10.7,2.4 -9.4,3.6 -10,5.4 -8.5,4.2 -7,5.4
			-7.5,3.6 		"/>
	</g>
</g>
<g id="Ebene_3" class="st0">
	<circle class="st12" cx="-0.7" cy="9.7" r="3.4"/>
	<path class="st5" d="M-5.8,10c0-2.8,2-5,4.6-5.5c-0.4-5.8-5.1-10.3-11-10.3c-6.1,0-11.1,5-11.1,11.1s5,11.1,11.1,11.1
		c2.9,0,5.6-1.2,7.6-3C-5.3,12.4-5.8,11.3-5.8,10z"/>
	<rect x="-7.7" y="7.2" class="st4" width="14" height="8.7"/>
	<text transform="matrix(1 0 0 1 -1.5133 11.7168)" class="st7 st16 st17">!</text>
	<polyline class="st9" points="-13.2,-0.2 -17.7,-0.2 -17.7,12.2 -8.3,12.2 -8.3,4.5 	"/>
	<path class="st7" d="M-8.5,3l-0.3-0.3C-8.7,2.6-8.9,2-9.7,1.4c-0.8-0.7-1.4-0.8-1.5-0.6l-0.3-0.3C-10.9-0.4-7.8,2.1-8.5,3z"/>
	<g class="st13">
		<path class="st14" d="M-4.5-2.6l-4.3,5.3l-2,0.9C-10.9,3.4-11,3.2-11.2,3c-0.2-0.1-0.4-0.2-0.6-0.2l0.5-2.1L-7-4.5
			c-0.1-0.1-0.3-0.2-0.4-0.2l-4.2,5.2l-0.5,2.3l0,0l-0.4,2l4-1.8l4.4-5.4C-4.3-2.5-4.4-2.6-4.5-2.6z"/>
	</g>
</g>
<g id="Ebene_4" class="st0">
	<path class="st5" d="M-10.5-5.6c-6.1,0-11,4.9-11,11c0,3.2,1.4,6.1,3.6,8.2c2,1.8,4.5,2.8,7.4,2.8c2.4,0,4.6-0.8,6.4-2
		c2.8-2,4.6-5.3,4.6-9C0.5-0.7-4.5-5.6-10.5-5.6z"/>
	<circle class="st7" cx="-10.5" cy="1.7" r="2.9"/>
	<path class="st7" d="M-7.6,6.4h-6c-1.6,0-2.8,1.3-2.8,2.8v4.6c0.7,0.5,1.4,0.9,2.1,1.2v-4.9c0-0.4,0.2-0.7,0.5-0.7s0.5,0.3,0.5,0.7
		v5.1v0.1c0.9,0.3,1.9,0.4,2.9,0.4s2-0.2,2.9-0.4c0-0.1,0-0.1,0-0.2V10c0-0.4,0.2-0.7,0.5-0.7s0.5,0.3,0.5,0.7v4.9
		c0.7-0.3,1.3-0.6,1.9-1.1V9C-4.8,7.7-6.1,6.4-7.6,6.4z"/>
	<path class="st18" d="M65.5,58.4c-6.1,0-11,4.9-11,11c0,3.2,1.4,6.1,3.6,8.2c2,1.8,4.5,2.8,7.4,2.8c2.4,0,4.6-0.8,6.4-2
		c2.8-2,4.6-5.3,4.6-9C76.5,63.3,71.5,58.4,65.5,58.4z"/>
	<circle class="st7" cx="65.5" cy="65.7" r="2.9"/>
	<path class="st7" d="M68.4,70.4h-6c-1.6,0-2.8,1.3-2.8,2.8v4.6c0.7,0.5,1.4,0.9,2.1,1.2v-4.9c0-0.4,0.2-0.7,0.5-0.7
		s0.5,0.3,0.5,0.7v5.1v0.1c0.9,0.3,1.9,0.4,2.9,0.4s2-0.2,2.9-0.4c0-0.1,0-0.1,0-0.2V74c0-0.4,0.2-0.7,0.5-0.7s0.5,0.3,0.5,0.7v4.9
		c0.7-0.3,1.3-0.6,1.9-1.1V73C71.2,71.7,69.9,70.4,68.4,70.4z"/>
</g>
<g id="Ebene_5" class="st0">
	<path class="st18" d="M-10.5-5.6c-6.1,0-11,4.9-11,11c0,3.2,1.4,6.1,3.6,8.2c2,1.8,4.5,2.8,7.4,2.8c2.4,0,4.6-0.8,6.4-2
		c2.8-2,4.6-5.3,4.6-9C0.5-0.7-4.5-5.6-10.5-5.6z"/>
	<circle class="st7" cx="-10.5" cy="1.7" r="2.9"/>
	<path class="st7" d="M-7.6,6.4h-6c-1.6,0-2.8,1.3-2.8,2.8v4.6c0.7,0.5,1.4,0.9,2.1,1.2v-4.9c0-0.4,0.2-0.7,0.5-0.7s0.5,0.3,0.5,0.7
		v5.1v0.1c0.9,0.3,1.9,0.4,2.9,0.4s2-0.2,2.9-0.4c0-0.1,0-0.1,0-0.2V10c0-0.4,0.2-0.7,0.5-0.7s0.5,0.3,0.5,0.7v4.9
		c0.7-0.3,1.3-0.6,1.9-1.1V9C-4.8,7.7-6.1,6.4-7.6,6.4z"/>
</g>
<g id="Ebene_6" class="st0">
	<path class="st19" d="M65.5,98.4c-6.1,0-11,4.9-11,11c0,3.2,1.4,6.1,3.6,8.2c2,1.8,4.5,2.8,7.4,2.8c2.4,0,4.6-0.8,6.4-2
		c2.8-2,4.6-5.3,4.6-9C76.5,103.3,71.5,98.4,65.5,98.4z"/>
	<circle class="st7" cx="65.5" cy="105.7" r="2.9"/>
	<path class="st7" d="M68.4,110.4h-6c-1.6,0-2.8,1.3-2.8,2.8v4.6c0.7,0.5,1.4,0.9,2.1,1.2v-4.9c0-0.4,0.2-0.7,0.5-0.7
		s0.5,0.3,0.5,0.7v5.1v0.1c0.9,0.3,1.9,0.4,2.9,0.4s2-0.2,2.9-0.4c0-0.1,0-0.1,0-0.2V114c0-0.4,0.2-0.7,0.5-0.7s0.5,0.3,0.5,0.7v4.9
		c0.7-0.3,1.3-0.6,1.9-1.1V113C71.2,111.7,69.9,110.4,68.4,110.4z"/>
	<path class="st19" d="M-10.5-5.7c-6.1,0-11,4.9-11,11c0,3.2,1.4,6.1,3.6,8.2c2,1.8,4.5,2.8,7.4,2.8c2.4,0,4.6-0.8,6.4-2
		c2.8-2,4.6-5.3,4.6-9C0.5-0.8-4.5-5.7-10.5-5.7z"/>
	<circle class="st7" cx="-10.5" cy="1.6" r="2.9"/>
	<path class="st7" d="M-7.6,6.3h-6c-1.6,0-2.8,1.3-2.8,2.8v4.6c0.7,0.5,1.4,0.9,2.1,1.2V10c0-0.4,0.2-0.7,0.5-0.7s0.5,0.3,0.5,0.7
		v5.1v0.1c0.9,0.3,1.9,0.4,2.9,0.4s2-0.2,2.9-0.4c0-0.1,0-0.1,0-0.2V9.9c0-0.4,0.2-0.7,0.5-0.7s0.5,0.3,0.5,0.7v4.9
		c0.7-0.3,1.3-0.6,1.9-1.1V8.9C-4.8,7.6-6.1,6.3-7.6,6.3z"/>
</g>
<g id="Ebene_7" class="st0">
	<path class="st19" d="M65.5,98.4c-6.1,0-11,4.9-11,11c0,3.2,1.4,6.1,3.6,8.2c2,1.8,4.5,2.8,7.4,2.8c2.4,0,4.6-0.8,6.4-2
		c2.8-2,4.6-5.3,4.6-9C76.5,103.3,71.5,98.4,65.5,98.4z"/>
	<circle class="st7" cx="65.5" cy="105.7" r="2.9"/>
	<path class="st7" d="M68.4,110.4h-6c-1.6,0-2.8,1.3-2.8,2.8v4.6c0.7,0.5,1.4,0.9,2.1,1.2v-4.9c0-0.4,0.2-0.7,0.5-0.7
		s0.5,0.3,0.5,0.7v5.1v0.1c0.9,0.3,1.9,0.4,2.9,0.4s2-0.2,2.9-0.4c0-0.1,0-0.1,0-0.2V114c0-0.4,0.2-0.7,0.5-0.7s0.5,0.3,0.5,0.7v4.9
		c0.7-0.3,1.3-0.6,1.9-1.1V113C71.2,111.7,69.9,110.4,68.4,110.4z"/>
	<path class="st19" d="M65.5,98.4c-6.1,0-11,4.9-11,11c0,3.2,1.4,6.1,3.6,8.2c2,1.8,4.5,2.8,7.4,2.8c2.4,0,4.6-0.8,6.4-2
		c2.8-2,4.6-5.3,4.6-9C76.5,103.3,71.5,98.4,65.5,98.4z"/>
	<circle class="st7" cx="65.5" cy="105.7" r="2.9"/>
	<path class="st7" d="M68.4,110.4h-6c-1.6,0-2.8,1.3-2.8,2.8v4.6c0.7,0.5,1.4,0.9,2.1,1.2v-4.9c0-0.4,0.2-0.7,0.5-0.7
		s0.5,0.3,0.5,0.7v5.1v0.1c0.9,0.3,1.9,0.4,2.9,0.4s2-0.2,2.9-0.4c0-0.1,0-0.1,0-0.2V114c0-0.4,0.2-0.7,0.5-0.7s0.5,0.3,0.5,0.7v4.9
		c0.7-0.3,1.3-0.6,1.9-1.1V113C71.2,111.7,69.9,110.4,68.4,110.4z"/>
</g>
<g id="Ebene_8" class="st0">
	<path class="st20" d="M65.5,134.4c-6.1,0-11,4.9-11,11c0,3.2,1.4,6.1,3.6,8.2c2,1.8,4.5,2.8,7.4,2.8c2.4,0,4.6-0.8,6.4-2
		c2.8-2,4.6-5.3,4.6-9C76.5,139.3,71.5,134.4,65.5,134.4z"/>
	<circle class="st7" cx="65.5" cy="141.7" r="2.9"/>
	<path class="st7" d="M68.4,146.4h-6c-1.6,0-2.8,1.3-2.8,2.8v4.6c0.7,0.5,1.4,0.9,2.1,1.2v-4.9c0-0.4,0.2-0.7,0.5-0.7
		s0.5,0.3,0.5,0.7v5.1v0.1c0.9,0.3,1.9,0.4,2.9,0.4s2-0.2,2.9-0.4c0-0.1,0-0.1,0-0.2V150c0-0.4,0.2-0.7,0.5-0.7s0.5,0.3,0.5,0.7v4.9
		c0.7-0.3,1.3-0.6,1.9-1.1V149C71.2,147.7,69.9,146.4,68.4,146.4z"/>
	<path class="st20" d="M-10.5-5.7c-6.1,0-11,4.9-11,11c0,3.2,1.4,6.1,3.6,8.2c2,1.8,4.5,2.8,7.4,2.8c2.4,0,4.6-0.8,6.4-2
		c2.8-2,4.6-5.3,4.6-9C0.5-0.8-4.5-5.7-10.5-5.7z"/>
	<circle class="st7" cx="-10.5" cy="1.6" r="2.9"/>
	<path class="st7" d="M-7.6,6.3h-6c-1.6,0-2.8,1.3-2.8,2.8v4.6c0.7,0.5,1.4,0.9,2.1,1.2V10c0-0.4,0.2-0.7,0.5-0.7s0.5,0.3,0.5,0.7
		v5.1v0.1c0.9,0.3,1.9,0.4,2.9,0.4s2-0.2,2.9-0.4c0-0.1,0-0.1,0-0.2V9.9c0-0.4,0.2-0.7,0.5-0.7s0.5,0.3,0.5,0.7v4.9
		c0.7-0.3,1.3-0.6,1.9-1.1V8.9C-4.8,7.6-6.1,6.3-7.6,6.3z"/>
</g>
<g id="Ebene_9" class="st0">
	<path class="st21" d="M-10.5-5.6c-6.1,0-11,4.9-11,11c0,3.2,1.4,6.1,3.6,8.2c2,1.8,4.5,2.8,7.4,2.8c2.4,0,4.6-0.8,6.4-2
		c2.8-2,4.6-5.3,4.6-9C0.5-0.7-4.5-5.6-10.5-5.6z"/>
	<circle class="st7" cx="-10.5" cy="1.7" r="2.9"/>
	<path class="st7" d="M-7.6,6.4h-6c-1.6,0-2.8,1.3-2.8,2.8v4.6c0.7,0.5,1.4,0.9,2.1,1.2v-4.9c0-0.4,0.2-0.7,0.5-0.7s0.5,0.3,0.5,0.7
		v5.1v0.1c0.9,0.3,1.9,0.4,2.9,0.4s2-0.2,2.9-0.4c0-0.1,0-0.1,0-0.2V10c0-0.4,0.2-0.7,0.5-0.7s0.5,0.3,0.5,0.7v4.9
		c0.7-0.3,1.3-0.6,1.9-1.1V9C-4.8,7.7-6.1,6.4-7.6,6.4z"/>
</g>
<g id="Ebene_10" class="st0">
	<path class="st22" d="M-10.5-5.6c-6.1,0-11,4.9-11,11c0,3.2,1.4,6.1,3.6,8.2c2,1.8,4.5,2.8,7.4,2.8c2.4,0,4.6-0.8,6.4-2
		c2.8-2,4.6-5.3,4.6-9C0.5-0.7-4.5-5.6-10.5-5.6z"/>
	<circle class="st7" cx="-10.5" cy="1.7" r="2.9"/>
	<path class="st7" d="M-7.6,6.4h-6c-1.6,0-2.8,1.3-2.8,2.8v4.6c0.7,0.5,1.4,0.9,2.1,1.2v-4.9c0-0.4,0.2-0.7,0.5-0.7s0.5,0.3,0.5,0.7
		v5.1v0.1c0.9,0.3,1.9,0.4,2.9,0.4s2-0.2,2.9-0.4c0-0.1,0-0.1,0-0.2V10c0-0.4,0.2-0.7,0.5-0.7s0.5,0.3,0.5,0.7v4.9
		c0.7-0.3,1.3-0.6,1.9-1.1V9C-4.8,7.7-6.1,6.4-7.6,6.4z"/>
</g>
<g id="Ebene_11" class="st0">
	<path class="st23" d="M-10.5-5.6c-6.1,0-11,4.9-11,11c0,3.2,1.4,6.1,3.6,8.2c2,1.8,4.5,2.8,7.4,2.8c2.4,0,4.6-0.8,6.4-2
		c2.8-2,4.6-5.3,4.6-9C0.5-0.6-4.5-5.6-10.5-5.6z"/>
	<circle class="st7" cx="-10.5" cy="1.7" r="2.9"/>
	<path class="st7" d="M-7.6,6.4h-6c-1.6,0-2.8,1.3-2.8,2.8v4.6c0.7,0.5,1.4,0.9,2.1,1.2v-4.9c0-0.4,0.2-0.7,0.5-0.7s0.5,0.3,0.5,0.7
		v5.1v0.1c0.9,0.3,1.9,0.4,2.9,0.4s2-0.2,2.9-0.4c0-0.1,0-0.1,0-0.2V10c0-0.4,0.2-0.7,0.5-0.7s0.5,0.3,0.5,0.7v4.9
		c0.7-0.3,1.3-0.6,1.9-1.1V9C-4.8,7.7-6.1,6.4-7.6,6.4z"/>
</g>
<g id="Ebene_12" class="st0">
	<circle class="st24" cx="-10" cy="5.3" r="6"/>
</g>
<g id="Ebene_13" class="st0">
	<path class="st5" d="M-10.4-5.7c-6.1,0-11,4.9-11,11c0,3.2,1.4,6.1,3.6,8.2c2,1.8,4.5,2.8,7.4,2.8c2.4,0,4.6-0.8,6.4-2
		c2.8-2,4.6-5.3,4.6-9C0.6-0.8-4.4-5.7-10.4-5.7z"/>
	<circle class="st7" cx="-10.4" cy="1.3" r="3.1"/>
	<g class="st13">
		<path class="st14" d="M-5.2,14.3V9.8c0-4.2-1.4-3.9-3.3-3.9h-1.9h-1.9c-1.9,0-3.3-0.3-3.3,3.9v4.5c0.5,0.3,1,0.6,1.6,0.8V9.9V9.8
			V9.5c0-0.1,0.1-0.2,0.2-0.2l0,0l0,0c0.1,0,0.2,0.1,0.2,0.2l0.1,0.3l1.6,3.6l-1.1,2.1c0.9,0.3,1.7,0.4,2.6,0.4s1.8-0.1,2.6-0.4
			l-1.1-2.1l1.6-3.6l0.1-0.3c0-0.1,0.1-0.2,0.2-0.2l0,0l0,0c0.1,0,0.2,0.1,0.2,0.2v0.3v0.1v5.2C-6.3,14.9-5.7,14.6-5.2,14.3z"/>
	</g>
</g>
<g id="Ebene_14" class="st0">
	<path class="st18" d="M-10.5-5.6c-6.1,0-11,4.9-11,11c0,3.2,1.4,6.1,3.6,8.2c2,1.8,4.5,2.8,7.4,2.8c2.4,0,4.6-0.8,6.4-2
		c2.8-2,4.6-5.3,4.6-9C0.5-0.7-4.5-5.6-10.5-5.6z"/>
	<circle class="st7" cx="-10.4" cy="1.4" r="3.1"/>
	<g class="st13">
		<path class="st14" d="M-5.2,14.4V9.9C-5.2,5.7-6.6,6-8.5,6h-1.9h-1.9c-1.9,0-3.3-0.3-3.3,3.9v4.5c0.5,0.3,1,0.6,1.6,0.8V10V9.9
			V9.6c0-0.1,0.1-0.2,0.2-0.2l0,0l0,0c0.1,0,0.2,0.1,0.2,0.2l0.1,0.3l1.6,3.6l-1.1,2.1c0.9,0.3,1.7,0.4,2.6,0.4s1.8-0.1,2.6-0.4
			l-1.1-2.1l1.6-3.6l0.1-0.3c0-0.1,0.1-0.2,0.2-0.2l0,0l0,0c0.1,0,0.2,0.1,0.2,0.2v0.3V10v5.3C-6.3,15-5.7,14.7-5.2,14.4z"/>
	</g>
</g>
<g id="Ebene_15" class="st0">
	<path class="st19" d="M-10.5-5.6c-6.1,0-11,4.9-11,11c0,3.2,1.4,6.1,3.6,8.2c2,1.8,4.5,2.8,7.4,2.8c2.4,0,4.6-0.8,6.4-2
		c2.8-2,4.6-5.3,4.6-9C0.5-0.7-4.5-5.6-10.5-5.6z"/>
	<circle class="st7" cx="-10.4" cy="1.4" r="3.1"/>
	<g class="st13">
		<path class="st14" d="M-5.2,14.4V9.9C-5.2,5.7-6.6,6-8.5,6h-1.9h-1.9c-1.9,0-3.3-0.3-3.3,3.9v4.5c0.5,0.3,1,0.6,1.6,0.8V10V9.9
			V9.6c0-0.1,0.1-0.2,0.2-0.2l0,0l0,0c0.1,0,0.2,0.1,0.2,0.2l0.1,0.3l1.6,3.6l-1.1,2.1c0.9,0.3,1.7,0.4,2.6,0.4s1.8-0.1,2.6-0.4
			l-1.1-2.1l1.6-3.6l0.1-0.3c0-0.1,0.1-0.2,0.2-0.2l0,0l0,0c0.1,0,0.2,0.1,0.2,0.2v0.3V10v5.3C-6.3,15-5.7,14.8-5.2,14.4z"/>
	</g>
</g>
<g id="Ebene_16" class="st0">
	<path class="st20" d="M-10.5-5.6c-6.1,0-11,4.9-11,11c0,3.2,1.4,6.1,3.6,8.2c2,1.8,4.5,2.8,7.4,2.8c2.4,0,4.6-0.8,6.4-2
		c2.8-2,4.6-5.3,4.6-9C0.5-0.7-4.5-5.6-10.5-5.6z"/>
	<circle class="st7" cx="-10.4" cy="1.4" r="3.1"/>
	<g class="st13">
		<path class="st14" d="M-5.2,14.4V9.9C-5.2,5.7-6.6,6-8.5,6h-1.9h-1.9c-1.9,0-3.3-0.3-3.3,3.9v4.5c0.5,0.3,1,0.6,1.6,0.8V10V9.9
			V9.6c0-0.1,0.1-0.2,0.2-0.2l0,0l0,0c0.1,0,0.2,0.1,0.2,0.2l0.1,0.3l1.6,3.6l-1.1,2.1c0.9,0.3,1.7,0.4,2.6,0.4s1.8-0.1,2.6-0.4
			l-1.1-2.1l1.6-3.6l0.1-0.3c0-0.1,0.1-0.2,0.2-0.2l0,0l0,0c0.1,0,0.2,0.1,0.2,0.2v0.3V10v5.3C-6.3,15-5.7,14.8-5.2,14.4z"/>
	</g>
</g>
<g id="Ebene_17" class="st0">
	<path class="st21" d="M-10.5-5.6c-6.1,0-11,4.9-11,11c0,3.2,1.4,6.1,3.6,8.2c2,1.8,4.5,2.8,7.4,2.8c2.4,0,4.6-0.8,6.4-2
		c2.8-2,4.6-5.3,4.6-9C0.5-0.7-4.5-5.6-10.5-5.6z"/>
	<circle class="st7" cx="-10.4" cy="1.5" r="3.1"/>
	<g class="st13">
		<path class="st14" d="M-5.2,14.4V9.9C-5.2,5.7-6.6,6-8.5,6h-1.9h-1.9c-1.9,0-3.3-0.3-3.3,3.9v4.5c0.5,0.3,1,0.6,1.6,0.8V10V9.9
			V9.6c0-0.1,0.1-0.2,0.2-0.2l0,0l0,0c0.1,0,0.2,0.1,0.2,0.2l0.1,0.3l1.6,3.6l-1.1,2.1c0.9,0.3,1.7,0.4,2.6,0.4s1.8-0.1,2.6-0.4
			l-1.1-2.1l1.6-3.6l0.1-0.3c0-0.1,0.1-0.2,0.2-0.2l0,0l0,0c0.1,0,0.2,0.1,0.2,0.2v0.3V10v5.3C-6.3,15-5.7,14.8-5.2,14.4z"/>
	</g>
</g>
<g id="Ebene_18" class="st0">
	<path class="st22" d="M-10.5-5.6c-6.1,0-11,4.9-11,11c0,3.2,1.4,6.1,3.6,8.2c2,1.8,4.5,2.8,7.4,2.8c2.4,0,4.6-0.8,6.4-2
		c2.8-2,4.6-5.3,4.6-9C0.5-0.7-4.5-5.6-10.5-5.6z"/>
	<circle class="st7" cx="-10.4" cy="1.5" r="3.1"/>
	<g class="st13">
		<path class="st14" d="M-5.2,14.4V9.9C-5.2,5.7-6.6,6-8.5,6h-1.9h-1.9c-1.9,0-3.3-0.3-3.3,3.9v4.5c0.5,0.3,1,0.6,1.6,0.8V10V9.9
			V9.6c0-0.1,0.1-0.2,0.2-0.2l0,0l0,0c0.1,0,0.2,0.1,0.2,0.2l0.1,0.3l1.6,3.6l-1.1,2.1c0.9,0.3,1.7,0.4,2.6,0.4s1.8-0.1,2.6-0.4
			l-1.1-2.1l1.6-3.6l0.1-0.3c0-0.1,0.1-0.2,0.2-0.2l0,0l0,0c0.1,0,0.2,0.1,0.2,0.2v0.3V10v5.3C-6.3,15-5.7,14.8-5.2,14.4z"/>
	</g>
</g>
<g id="Ebene_19" class="st0">
	<path class="st23" d="M-10.5-5.6c-6.1,0-11,4.9-11,11c0,3.2,1.4,6.1,3.6,8.2c2,1.8,4.5,2.8,7.4,2.8c2.4,0,4.6-0.8,6.4-2
		c2.8-2,4.6-5.3,4.6-9C0.5-0.6-4.5-5.6-10.5-5.6z"/>
	<circle class="st7" cx="-10.4" cy="1.5" r="3.1"/>
	<g class="st13">
		<path class="st14" d="M-5.2,14.4V9.9C-5.2,5.7-6.6,6-8.5,6h-1.9h-1.9c-1.9,0-3.3-0.3-3.3,3.9v4.5c0.5,0.3,1,0.6,1.6,0.8V10V9.9
			V9.6c0-0.1,0.1-0.2,0.2-0.2l0,0l0,0c0.1,0,0.2,0.1,0.2,0.2l0.1,0.3l1.6,3.6l-1.1,2.1c0.9,0.3,1.7,0.4,2.6,0.4s1.8-0.1,2.6-0.4
			l-1.1-2.1l1.6-3.6l0.1-0.3c0-0.1,0.1-0.2,0.2-0.2l0,0l0,0c0.1,0,0.2,0.1,0.2,0.2v0.3V10v5.3C-6.3,15.1-5.7,14.8-5.2,14.4z"/>
	</g>
</g>
<g id="Ebene_20" class="st0">
	<circle class="st25" cx="-9" cy="5.6" r="1.2"/>
	<g class="st13">
		<circle class="st26" cx="-9.9" cy="4.9" r="2.8"/>
		<rect x="-10.6" y="3" class="st27" width="12.5" height="10.1"/>
		<text transform="matrix(1 0 0 1 -10.6371 6.7428)" class="st29" style="font-family:'Times-Roman'; font-size:5.4222px;">i</text>
	</g>
</g>
<g id="Ebene_21" class="st0">
	<g class="st13">
		<path class="st14" d="M-8.5,6.2c0,2.5-2.1,4.6-4.6,4.6"/>
		<path class="st14" d="M-13.1,11.4v-1.1c2.3,0,4.1-1.8,4.1-4.1h1.1C-7.9,9.1-10.2,11.4-13.1,11.4z"/>
	</g>
	<g class="st13">
		<path class="st30" d="M-10.5-5.7c-6.1,0-11,4.9-11,11s4.9,11,11,11s11-4.9,11-11S-4.5-5.7-10.5-5.7L-10.5-5.7L-10.5-5.7z
			 M-10.5-1.9c4,0,7.2,3.2,7.2,7.2s-3.2,7.2-7.2,7.2s-7.2-3.2-7.2-7.2S-14.5-1.9-10.5-1.9"/>
		<path class="st30" d="M-7.5,5.3c0,1.7-1.3,3-3,3s-3-1.3-3-3s1.3-3,3-3C-8.9,2.3-7.5,3.6-7.5,5.3L-7.5,5.3z"/>
	</g>
</g>
<g id="Ebene_22" class="st0">
	<path class="st12" d="M-11.1,8.3c-2.1,0-3.8-1.7-3.8-3.8s1.7-3.8,3.8-3.8s3.8,1.7,3.8,3.8S-9,8.3-11.1,8.3z M-11.1,1.6
		c-1.6,0-2.8,1.3-2.8,2.8s1.3,2.8,2.8,2.8s2.8-1.3,2.8-2.8S-9.6,1.6-11.1,1.6z"/>
	<polygon class="st12" points="-5.9,9.9 -9,7.1 -8.4,6.3 -5.2,9.1 	"/>
</g>
<g id="Ebene_23">
	<path class="st31" d="M5.5,11C2.4,11,0,8.5,0,5.5S2.5,0,5.5,0S11,2.5,11,5.5S8.6,11,5.5,11z M5.5,1.4c-2.3,0-4.1,1.8-4.1,4.1
		s1.8,4.1,4.1,4.1s4.1-1.8,4.1-4.1S7.8,1.4,5.5,1.4z"/>
	<polygon class="st31" points="13.1,13.3 8.5,9.2 9.5,8.1 14,12.2 	"/>
</g>
</svg>
