<?xml version="1.0" encoding="UTF-8" standalone="no"?>
<svg id="svg2" xmlns:rdf="http://www.w3.org/1999/02/22-rdf-syntax-ns#" xmlns="http://www.w3.org/2000/svg" viewBox="0 0 1536 1536" version="1.1" xmlns:cc="http://creativecommons.org/ns#" xmlns:dc="http://purl.org/dc/elements/1.1/">
 <metadata id="metadata10">
  <rdf:RDF>
   <cc:Work rdf:about="">
    <dc:format>image/svg+xml</dc:format>
    <dc:type rdf:resource="http://purl.org/dc/dcmitype/StillImage"/>
    <dc:title/>
   </cc:Work>
  </rdf:RDF>
 </metadata>
 <g>
  <path id="path4" d="m1024 1248v-160q0-14-9-23t-23-9h-96v-512q0-14-9-23t-23-9h-320q-14 0-23 9t-9 23v160q0 14 9 23t23 9h96v320h-96q-14 0-23 9t-9 23v160q0 14 9 23t23 9h448q14 0 23-9t9-23zm-128-896v-160q0-14-9-23t-23-9h-192q-14 0-23 9t-9 23v160q0 14 9 23t23 9h192q14 0 23-9t9-23zm640 416q0 209-103 385.5t-279.5 279.5-385.5 103-385.5-103-279.5-279.5-103-385.5 103-385.5 279.5-279.5 385.5-103 385.5 103 279.5 279.5 103 385.5z" fill="#575756"/>
  <path id="path4347" d="m532.29 1277.4c-6.9664-2.476-16.351-12.347-18.254-19.2-2.1139-7.6134-2.0554-173.33 0.0636-180.4 2.0687-6.9048 8.3144-14.263 15.258-17.976 5.5209-2.9523 6.9116-3.0341 58.421-3.4382l52.766-0.414v-160.56-160.56l-54.353-0.38521-54.353-0.3852-5.9026-4.1456c-3.2464-2.2801-7.4346-6.8758-9.3069-10.213l-3.4043-6.0672v-89.979-89.979l4.1061-6.6415c2.9895-4.8354 6.0869-7.6763 11.39-10.446l7.2834-3.8049h167.13c121.32 0 168.4 0.42478 171.76 1.5498 7.602 2.5452 13.575 7.92 17.017 15.312l3.2444 6.9679 0.0136 259.67 0.0136 259.67 52.766 0.414c51.058 0.4005 52.942 0.509 58.213 3.353 2.9958 1.6166 7.0994 4.6804 9.1193 6.8086 8.1052 8.5399 7.902 5.924 7.902 101.71v87.718l-3.8049 7.2834c-2.7701 5.3025-5.6112 8.4002-10.446 11.39l-6.6419 4.1062-232.28 0.2887c-197.85 0.2459-233.08 0-237.72-1.6472z" fill="#fff"/>
  <path id="path4349" d="m660.29 381.43c-6.9715-2.4894-16.353-12.361-18.254-19.209-2.1139-7.6134-2.0554-173.33 0.0636-180.4 2.0687-6.9048 8.3144-14.263 15.258-17.976l5.6555-3.0243h104.85c104.83 0 104.85 0.0007 110.3 2.9391 2.9958 1.6165 7.0994 4.6804 9.1192 6.8085 8.1052 8.5399 7.902 5.9241 7.902 101.71v87.718l-3.8049 7.2834c-2.7698 5.302-5.6115 8.4005-10.445 11.39l-6.6406 4.1061-104.28 0.29773c-87.466 0.24974-105.16-0.0158-109.72-1.6472z" fill="#fff"/>
 </g>
</svg>
