<?xml version="1.0" encoding="UTF-8"?>
<svg version="1.1" viewBox="0 0 750 485" xml:space="preserve" xmlns="http://www.w3.org/2000/svg"><style type="text/css">
	.st1{fill:#FFFFFF;}
	.st6{fill:#007297;}
	.st8{fill:#007297;}
</style><rect class="st8" x="218" y="61" width="404" height="126" fill="#007297" stroke-width="10"/><g transform="matrix(10,0,0,10,-25,-64)"><rect class="st1" x="9.4" y="25.1" width="63.2" height="17.2" fill="#fff"/><path class="st8" d="m73.4 43.1h-64.7v-18.7h64.7v18.7zm-63.2-1.5h61.7v-15.7h-61.7z" fill="#007297"/></g><g transform="matrix(10,0,0,10,-25,-64)"><rect class="st6" x="9.6" y="7.2" width="62.4" height="2.3" fill="#575756"/><path class="st8" d="m72.8 10.2h-64v-3.8h63.9zm-62.5-1.5h60.9v-0.8h-60.9z" fill="#007297"/></g><g stroke-width="10"><rect class="st6" x="176" y="19" width="9" height="171" fill="#575756"/><rect class="st1" x="482" y="58" width="15" height="130" fill="#fff"/><rect class="st1" x="341" y="58" width="15" height="130" fill="#fff"/></g><g transform="matrix(10,0,0,10,-25,-64)"><rect class="st8" x="45.3" y="32" width="22.1" height="9.4" fill="#007297"/><path class="st6" d="m68.1 42.1h-23.6v-10.9h23.6zm-22.1-1.5h20.6v-7.9h-20.6z" fill="#575756"/></g><g transform="matrix(10,0,0,10,-25,-64)"><path class="st1" d="m77.3 43.2c-7.2-2.6-21.2-4.4-37.3-4.4s-30.1 1.7-37.3 4.4" fill="#fff"/><path class="st8" d="m77 43.9c-7.4-2.7-21.6-4.4-37-4.4s-29.6 1.7-37 4.4l-0.5-1.4c7.5-2.8 21.9-4.5 37.5-4.5s30 1.7 37.5 4.5z" fill="#007297"/></g><g transform="matrix(10,0,0,10,-25,-64)"><path class="st1" d="m66.6 54.3s1-10.5-9.5-14.9" fill="#fff"/><path class="st8" d="m67.4 54.3-1.5-0.1c0-0.4 0.8-10-9.1-14.1l0.6-1.4c10.9 4.5 10 15.5 10 15.6z" fill="#007297"/></g><g transform="matrix(10,0,0,10,-25,-64)"><path class="st1" d="m50.7 39.1c-1.5-0.7 12.7 7.9 0.3 15.2" fill="#fff"/><path class="st8" d="m51.5 54.9-0.8-1.3c3-1.8 4.6-3.8 4.7-5.9 0.2-2.5-1.5-5.1-5-7.9-0.3-0.2-0.8-0.7-0.4-1.2 0.1-0.1 0.4-0.6 1.1-0.2l-0.2 0.4 0.3-0.3 0.2 0.2c3.9 3.1 5.7 6.2 5.5 9.2-0.2 2.6-2 5-5.4 7z" fill="#007297"/></g><rect class="st6" x="656" y="19" width="9" height="171" fill="#575756" stroke-width="10"/></svg>
